<mxfile host="app.diagrams.net" modified="2023-11-11T15:20:00.602Z" agent="Mozilla/5.0 (Windows NT 10.0; Win64; x64) AppleWebKit/537.36 (KHTML, like Gecko) Chrome/116.0.5845.837 YaBrowser/23.9.4.837 Yowser/2.5 Safari/537.36" etag="9nS_KtcVEQj_zYkIUdRa" version="22.1.0" type="google">
  <diagram name="Страница — 1" id="9YgVl3HRXVJxqifvj6p6">
    <mxGraphModel dx="1840" dy="1120" grid="1" gridSize="10" guides="1" tooltips="1" connect="1" arrows="1" fold="1" page="1" pageScale="1" pageWidth="827" pageHeight="1169" math="0" shadow="0">
      <root>
        <mxCell id="0" />
        <mxCell id="1" parent="0" />
        <mxCell id="G61n5vyRkMFBdBh0Xza3-1" value="Гость" style="shape=umlActor;verticalLabelPosition=bottom;verticalAlign=top;html=1;outlineConnect=0;fontSize=14;fontFamily=Times New Roman;" parent="1" vertex="1">
          <mxGeometry x="190" y="710" width="30" height="60" as="geometry" />
        </mxCell>
        <mxCell id="G61n5vyRkMFBdBh0Xza3-2" value="Авторизованный &lt;br style=&quot;font-size: 14px;&quot;&gt;пользователь" style="shape=umlActor;verticalLabelPosition=bottom;verticalAlign=top;html=1;outlineConnect=0;fontSize=14;fontFamily=Times New Roman;" parent="1" vertex="1">
          <mxGeometry x="190" y="410" width="30" height="60" as="geometry" />
        </mxCell>
        <mxCell id="G61n5vyRkMFBdBh0Xza3-6" value="" style="rounded=0;whiteSpace=wrap;html=1;fontSize=14;fontFamily=Times New Roman;" parent="1" vertex="1">
          <mxGeometry x="300" y="190" width="570" height="680" as="geometry" />
        </mxCell>
        <mxCell id="G61n5vyRkMFBdBh0Xza3-8" value="Просмотр доступных треков и альбомов" style="ellipse;whiteSpace=wrap;html=1;fontSize=14;fontFamily=Times New Roman;" parent="1" vertex="1">
          <mxGeometry x="350" y="660" width="140" height="75" as="geometry" />
        </mxCell>
        <mxCell id="G61n5vyRkMFBdBh0Xza3-9" value="Создание временных плейлистов" style="ellipse;whiteSpace=wrap;html=1;fontSize=14;fontFamily=Times New Roman;" parent="1" vertex="1">
          <mxGeometry x="340" y="760" width="140" height="75" as="geometry" />
        </mxCell>
        <mxCell id="G61n5vyRkMFBdBh0Xza3-11" value="Подписка на исполнителей" style="ellipse;whiteSpace=wrap;html=1;fontSize=14;fontFamily=Times New Roman;" parent="1" vertex="1">
          <mxGeometry x="340" y="290" width="140" height="75" as="geometry" />
        </mxCell>
        <mxCell id="G61n5vyRkMFBdBh0Xza3-13" value="Оценка и комментирование треков" style="ellipse;whiteSpace=wrap;html=1;fontSize=14;fontFamily=Times New Roman;" parent="1" vertex="1">
          <mxGeometry x="330" y="402.5" width="140" height="75" as="geometry" />
        </mxCell>
        <mxCell id="G61n5vyRkMFBdBh0Xza3-14" value="Управление персональным профилем" style="ellipse;whiteSpace=wrap;html=1;fontSize=14;fontFamily=Times New Roman;" parent="1" vertex="1">
          <mxGeometry x="343" y="500" width="140" height="75" as="geometry" />
        </mxCell>
        <mxCell id="G61n5vyRkMFBdBh0Xza3-16" value="Управление пользователями" style="ellipse;whiteSpace=wrap;html=1;fontSize=14;fontFamily=Times New Roman;" parent="1" vertex="1">
          <mxGeometry x="710" y="530" width="140" height="75" as="geometry" />
        </mxCell>
        <mxCell id="G61n5vyRkMFBdBh0Xza3-17" value="Просмотр и анализ статистики" style="ellipse;whiteSpace=wrap;html=1;fontSize=14;fontFamily=Times New Roman;" parent="1" vertex="1">
          <mxGeometry x="717" y="290" width="140" height="75" as="geometry" />
        </mxCell>
        <mxCell id="G61n5vyRkMFBdBh0Xza3-19" value="" style="endArrow=none;html=1;rounded=0;entryX=0;entryY=0.5;entryDx=0;entryDy=0;fontSize=14;fontFamily=Times New Roman;" parent="1" source="G61n5vyRkMFBdBh0Xza3-1" target="G61n5vyRkMFBdBh0Xza3-9" edge="1">
          <mxGeometry width="50" height="50" relative="1" as="geometry">
            <mxPoint x="270" y="840" as="sourcePoint" />
            <mxPoint x="320" y="790" as="targetPoint" />
          </mxGeometry>
        </mxCell>
        <mxCell id="G61n5vyRkMFBdBh0Xza3-20" value="" style="endArrow=none;html=1;rounded=0;fontSize=14;fontFamily=Times New Roman;" parent="1" source="G61n5vyRkMFBdBh0Xza3-1" target="G61n5vyRkMFBdBh0Xza3-8" edge="1">
          <mxGeometry width="50" height="50" relative="1" as="geometry">
            <mxPoint x="230" y="756" as="sourcePoint" />
            <mxPoint x="350" y="808" as="targetPoint" />
          </mxGeometry>
        </mxCell>
        <mxCell id="G61n5vyRkMFBdBh0Xza3-22" value="" style="endArrow=block;html=1;rounded=0;endFill=0;fontSize=14;fontFamily=Times New Roman;" parent="1" edge="1">
          <mxGeometry width="50" height="50" relative="1" as="geometry">
            <mxPoint x="205" y="510" as="sourcePoint" />
            <mxPoint x="204.72" y="690" as="targetPoint" />
          </mxGeometry>
        </mxCell>
        <mxCell id="G61n5vyRkMFBdBh0Xza3-23" value="Система музыкальной площадки" style="text;html=1;align=center;verticalAlign=middle;resizable=0;points=[];autosize=1;strokeColor=none;fillColor=none;fontSize=14;fontFamily=Times New Roman;" parent="1" vertex="1">
          <mxGeometry x="660" y="200" width="220" height="30" as="geometry" />
        </mxCell>
        <mxCell id="G61n5vyRkMFBdBh0Xza3-24" value="Редактирование&lt;br&gt;профиля" style="ellipse;whiteSpace=wrap;html=1;fontSize=14;fontFamily=Times New Roman;" parent="1" vertex="1">
          <mxGeometry x="560" y="430" width="140" height="75" as="geometry" />
        </mxCell>
        <mxCell id="G61n5vyRkMFBdBh0Xza3-25" value="Удаление&lt;br&gt;профиля" style="ellipse;whiteSpace=wrap;html=1;fontSize=14;fontFamily=Times New Roman;" parent="1" vertex="1">
          <mxGeometry x="550" y="547" width="140" height="75" as="geometry" />
        </mxCell>
        <mxCell id="G61n5vyRkMFBdBh0Xza3-27" value="" style="endArrow=classic;html=1;rounded=0;dashed=1;entryX=0;entryY=0.5;entryDx=0;entryDy=0;" parent="1" source="G61n5vyRkMFBdBh0Xza3-14" target="G61n5vyRkMFBdBh0Xza3-24" edge="1">
          <mxGeometry width="50" height="50" relative="1" as="geometry">
            <mxPoint x="881" y="101" as="sourcePoint" />
            <mxPoint x="808" y="13" as="targetPoint" />
            <Array as="points" />
          </mxGeometry>
        </mxCell>
        <mxCell id="G61n5vyRkMFBdBh0Xza3-28" value="includes" style="edgeLabel;html=1;align=center;verticalAlign=middle;resizable=0;points=[];" parent="G61n5vyRkMFBdBh0Xza3-27" vertex="1" connectable="0">
          <mxGeometry x="-0.2157" relative="1" as="geometry">
            <mxPoint as="offset" />
          </mxGeometry>
        </mxCell>
        <mxCell id="G61n5vyRkMFBdBh0Xza3-29" value="" style="endArrow=classic;html=1;rounded=0;dashed=1;" parent="1" source="G61n5vyRkMFBdBh0Xza3-14" target="G61n5vyRkMFBdBh0Xza3-25" edge="1">
          <mxGeometry width="50" height="50" relative="1" as="geometry">
            <mxPoint x="474" y="522" as="sourcePoint" />
            <mxPoint x="560" y="478" as="targetPoint" />
            <Array as="points" />
          </mxGeometry>
        </mxCell>
        <mxCell id="G61n5vyRkMFBdBh0Xza3-30" value="includes" style="edgeLabel;html=1;align=center;verticalAlign=middle;resizable=0;points=[];" parent="G61n5vyRkMFBdBh0Xza3-29" vertex="1" connectable="0">
          <mxGeometry x="-0.2157" relative="1" as="geometry">
            <mxPoint as="offset" />
          </mxGeometry>
        </mxCell>
        <mxCell id="G61n5vyRkMFBdBh0Xza3-31" value="" style="endArrow=none;html=1;rounded=0;fontSize=14;fontFamily=Times New Roman;entryX=0.011;entryY=0.378;entryDx=0;entryDy=0;entryPerimeter=0;" parent="1" target="G61n5vyRkMFBdBh0Xza3-14" edge="1">
          <mxGeometry width="50" height="50" relative="1" as="geometry">
            <mxPoint x="230" y="450" as="sourcePoint" />
            <mxPoint x="364" y="720" as="targetPoint" />
          </mxGeometry>
        </mxCell>
        <mxCell id="G61n5vyRkMFBdBh0Xza3-32" value="" style="endArrow=none;html=1;rounded=0;fontSize=14;fontFamily=Times New Roman;" parent="1" source="G61n5vyRkMFBdBh0Xza3-2" target="G61n5vyRkMFBdBh0Xza3-13" edge="1">
          <mxGeometry width="50" height="50" relative="1" as="geometry">
            <mxPoint x="240" y="460" as="sourcePoint" />
            <mxPoint x="355" y="538" as="targetPoint" />
          </mxGeometry>
        </mxCell>
        <mxCell id="G61n5vyRkMFBdBh0Xza3-33" value="" style="endArrow=none;html=1;rounded=0;fontSize=14;fontFamily=Times New Roman;entryX=0.071;entryY=0.8;entryDx=0;entryDy=0;entryPerimeter=0;" parent="1" source="G61n5vyRkMFBdBh0Xza3-2" target="G61n5vyRkMFBdBh0Xza3-11" edge="1">
          <mxGeometry width="50" height="50" relative="1" as="geometry">
            <mxPoint x="230" y="450" as="sourcePoint" />
            <mxPoint x="340" y="450" as="targetPoint" />
          </mxGeometry>
        </mxCell>
        <mxCell id="G61n5vyRkMFBdBh0Xza3-34" value="Менеджер" style="shape=umlActor;verticalLabelPosition=bottom;verticalAlign=top;html=1;outlineConnect=0;fontSize=14;fontFamily=Times New Roman;" parent="1" vertex="1">
          <mxGeometry x="940" y="460" width="30" height="60" as="geometry" />
        </mxCell>
        <mxCell id="G61n5vyRkMFBdBh0Xza3-37" value="Блокировка&lt;br&gt;аккаунта" style="ellipse;whiteSpace=wrap;html=1;fontSize=14;fontFamily=Times New Roman;" parent="1" vertex="1">
          <mxGeometry x="550" y="702.5" width="140" height="75" as="geometry" />
        </mxCell>
        <mxCell id="G61n5vyRkMFBdBh0Xza3-38" value="Удаление&lt;br&gt;аккаунта" style="ellipse;whiteSpace=wrap;html=1;fontSize=14;fontFamily=Times New Roman;" parent="1" vertex="1">
          <mxGeometry x="717" y="760" width="140" height="75" as="geometry" />
        </mxCell>
        <mxCell id="G61n5vyRkMFBdBh0Xza3-39" value="" style="endArrow=classic;html=1;rounded=0;dashed=1;exitX=0.5;exitY=1;exitDx=0;exitDy=0;" parent="1" source="G61n5vyRkMFBdBh0Xza3-16" target="G61n5vyRkMFBdBh0Xza3-38" edge="1">
          <mxGeometry width="50" height="50" relative="1" as="geometry">
            <mxPoint x="487" y="562" as="sourcePoint" />
            <mxPoint x="565" y="580" as="targetPoint" />
            <Array as="points" />
          </mxGeometry>
        </mxCell>
        <mxCell id="G61n5vyRkMFBdBh0Xza3-40" value="includes" style="edgeLabel;html=1;align=center;verticalAlign=middle;resizable=0;points=[];" parent="G61n5vyRkMFBdBh0Xza3-39" vertex="1" connectable="0">
          <mxGeometry x="-0.2157" relative="1" as="geometry">
            <mxPoint as="offset" />
          </mxGeometry>
        </mxCell>
        <mxCell id="G61n5vyRkMFBdBh0Xza3-41" value="" style="endArrow=classic;html=1;rounded=0;dashed=1;" parent="1" source="G61n5vyRkMFBdBh0Xza3-16" target="G61n5vyRkMFBdBh0Xza3-37" edge="1">
          <mxGeometry width="50" height="50" relative="1" as="geometry">
            <mxPoint x="797" y="695" as="sourcePoint" />
            <mxPoint x="714" y="775" as="targetPoint" />
            <Array as="points" />
          </mxGeometry>
        </mxCell>
        <mxCell id="G61n5vyRkMFBdBh0Xza3-42" value="includes" style="edgeLabel;html=1;align=center;verticalAlign=middle;resizable=0;points=[];" parent="G61n5vyRkMFBdBh0Xza3-41" vertex="1" connectable="0">
          <mxGeometry x="-0.2157" relative="1" as="geometry">
            <mxPoint as="offset" />
          </mxGeometry>
        </mxCell>
        <mxCell id="G61n5vyRkMFBdBh0Xza3-43" value="Удаление трека" style="ellipse;whiteSpace=wrap;html=1;fontSize=14;fontFamily=Times New Roman;" parent="1" vertex="1">
          <mxGeometry x="710" y="402.5" width="140" height="75" as="geometry" />
        </mxCell>
        <mxCell id="G61n5vyRkMFBdBh0Xza3-48" value="Популярность треков" style="ellipse;whiteSpace=wrap;html=1;fontSize=14;fontFamily=Times New Roman;" parent="1" vertex="1">
          <mxGeometry x="530" y="215" width="140" height="75" as="geometry" />
        </mxCell>
        <mxCell id="G61n5vyRkMFBdBh0Xza3-49" value="Активность пользователей" style="ellipse;whiteSpace=wrap;html=1;fontSize=14;fontFamily=Times New Roman;" parent="1" vertex="1">
          <mxGeometry x="500" y="310" width="140" height="75" as="geometry" />
        </mxCell>
        <mxCell id="G61n5vyRkMFBdBh0Xza3-50" value="" style="endArrow=classic;html=1;rounded=0;dashed=1;" parent="1" source="G61n5vyRkMFBdBh0Xza3-48" target="G61n5vyRkMFBdBh0Xza3-17" edge="1">
          <mxGeometry width="50" height="50" relative="1" as="geometry">
            <mxPoint x="475" y="523" as="sourcePoint" />
            <mxPoint x="570" y="478" as="targetPoint" />
            <Array as="points" />
          </mxGeometry>
        </mxCell>
        <mxCell id="G61n5vyRkMFBdBh0Xza3-51" value="extends" style="edgeLabel;html=1;align=center;verticalAlign=middle;resizable=0;points=[];" parent="G61n5vyRkMFBdBh0Xza3-50" vertex="1" connectable="0">
          <mxGeometry x="-0.2157" relative="1" as="geometry">
            <mxPoint as="offset" />
          </mxGeometry>
        </mxCell>
        <mxCell id="G61n5vyRkMFBdBh0Xza3-52" value="" style="endArrow=classic;html=1;rounded=0;dashed=1;entryX=0;entryY=0.5;entryDx=0;entryDy=0;" parent="1" source="G61n5vyRkMFBdBh0Xza3-49" target="G61n5vyRkMFBdBh0Xza3-17" edge="1">
          <mxGeometry width="50" height="50" relative="1" as="geometry">
            <mxPoint x="666" y="285" as="sourcePoint" />
            <mxPoint x="741" y="315" as="targetPoint" />
            <Array as="points" />
          </mxGeometry>
        </mxCell>
        <mxCell id="G61n5vyRkMFBdBh0Xza3-53" value="extends" style="edgeLabel;html=1;align=center;verticalAlign=middle;resizable=0;points=[];" parent="G61n5vyRkMFBdBh0Xza3-52" vertex="1" connectable="0">
          <mxGeometry x="-0.2157" relative="1" as="geometry">
            <mxPoint as="offset" />
          </mxGeometry>
        </mxCell>
        <mxCell id="G61n5vyRkMFBdBh0Xza3-54" value="" style="endArrow=none;html=1;rounded=0;fontSize=14;fontFamily=Times New Roman;exitX=0.5;exitY=0.5;exitDx=0;exitDy=0;exitPerimeter=0;entryX=1;entryY=1;entryDx=0;entryDy=0;" parent="1" target="G61n5vyRkMFBdBh0Xza3-17" edge="1">
          <mxGeometry width="50" height="50" relative="1" as="geometry">
            <mxPoint x="944.05" y="490" as="sourcePoint" />
            <mxPoint x="810.000020059942" y="360.2942746961995" as="targetPoint" />
          </mxGeometry>
        </mxCell>
        <mxCell id="G61n5vyRkMFBdBh0Xza3-55" value="" style="endArrow=none;html=1;rounded=0;fontSize=14;fontFamily=Times New Roman;" parent="1" target="G61n5vyRkMFBdBh0Xza3-43" edge="1">
          <mxGeometry width="50" height="50" relative="1" as="geometry">
            <mxPoint x="940" y="490" as="sourcePoint" />
            <mxPoint x="846" y="364" as="targetPoint" />
          </mxGeometry>
        </mxCell>
        <mxCell id="G61n5vyRkMFBdBh0Xza3-56" value="" style="endArrow=none;html=1;rounded=0;fontSize=14;fontFamily=Times New Roman;" parent="1" target="G61n5vyRkMFBdBh0Xza3-16" edge="1">
          <mxGeometry width="50" height="50" relative="1" as="geometry">
            <mxPoint x="950" y="500" as="sourcePoint" />
            <mxPoint x="851" y="469" as="targetPoint" />
          </mxGeometry>
        </mxCell>
      </root>
    </mxGraphModel>
  </diagram>
</mxfile>
